<?xml version="1.0" encoding="UTF-8" standalone="no"?>
<svg width="100px" height="34px" viewBox="0 0 100 34" version="1.1" xmlns="http://www.w3.org/2000/svg" xmlns:xlink="http://www.w3.org/1999/xlink" xmlns:sketch="http://www.bohemiancoding.com/sketch/ns">
    <title>Untitled 7</title>
    <description>Created with Sketch (http://www.bohemiancoding.com/sketch)</description>
    <defs></defs>
    <g id="Page-1" stroke="none" stroke-width="1" fill="none" fill-rule="evenodd" sketch:type="MSPage">
        <g id="Game-+-THE" sketch:type="MSLayerGroup">
            <path d="M23.6255572,22.4039325 C24.3144671,22.3626654 25.732811,22.1563297 26.4217209,21.9912611 C26.826962,20.9595825 27.191679,19.2676296 27.2727273,18.2772181 L12.7650952,18.2772181 C12.7650952,19.391431 12.8866676,20.9595825 13.0892881,21.9912611 C14.3860597,22.2801311 16.7364582,22.4451997 17.9927057,22.4451997 L17.2632716,29.4606142 C16.2501689,29.5844156 14.872349,29.708217 13.8997704,29.708217 C9.28002161,29.708217 6.56490612,27.0258527 6.56490612,20.5056439 C6.56490612,12.3347494 10.9415102,7.01128778 16.2501689,7.01128778 C17.4253681,7.01128778 18.7626638,7.30015779 19.7352425,7.83663066 L19.3300014,12.0458794 C20.1404836,12.5410851 22.6124544,13.1600922 24.0713224,13.1600922 C24.7197082,11.3030708 25.368094,7.71282923 25.5707146,5.64947202 C23.0176955,3.95751912 20.2620559,3.09090909 16.8580305,3.09090909 C6.92962313,3.09090909 0,10.6840636 0,20.9595825 C0,28.841607 4.0929353,34 11.7114683,34 C15.3586384,34 20.4646765,32.7619857 22.815075,31.9366428 L23.6255572,22.4039325 Z M40.0024587,30.6101635 C40.1253918,31.5727097 40.5351691,33.0374538 41.0678796,34 C42.7479665,34 45.985207,33.4141023 47.3784498,32.8282047 C47.9111603,31.9493582 48.4848485,30.0661157 48.4848485,29.0617197 L45.6164075,29.3546685 C45.5754298,29.2709689 45.4524966,28.8524705 45.4524966,28.6432214 L47.0916057,14.5398277 C45.4524966,13.4098822 42.9528551,12.3636364 40.248325,12.3636364 C36.2734854,12.3636364 33.2821112,14.0794795 31.3151802,16.6323193 C29.3072715,19.2688588 28.2828283,22.7005451 28.2828283,26.0485317 C28.2828283,31.6564094 30.7824697,34 34.0197103,34 C36.6832626,34 38.5682382,32.5771057 39.6336591,30.6101635 L40.0024587,30.6101635 Z M39.801524,27.8342302 C38.7677949,29.2111772 37.6513675,29.8787879 36.4108926,29.8787879 C35.1290685,29.8787879 34.3434343,28.8773718 34.3434343,25.9565751 C34.3434343,23.828566 34.8396243,20.7825923 35.9974009,19.0301142 C36.9070825,17.6531672 38.4370016,16.4848485 40.0082698,16.4848485 C40.3804123,16.4848485 41.0006498,16.5265742 41.4141414,16.6517512 L39.801524,27.8342302 Z M61.2003132,33.1211535 C61.8574564,33.3304027 62.8020998,33.4141023 63.7878146,33.4141023 C65.0610296,33.4141023 66.2521017,33.2885528 67.1556736,33.1211535 L68.6753173,19.4362581 C69.4556749,18.0970635 70.8521043,16.6323193 72.2074622,16.6323193 C73.4806772,16.6323193 74.014606,17.6785651 74.014606,19.227009 C74.014606,21.4032003 73.0288912,27.2621769 72.4949623,30.1498154 C72.4949623,31.1542114 73.6038915,33.246703 74.3842491,34 C76.0681786,34 79.3128233,33.4141023 80.7092526,32.8282047 C81.2431815,31.9493582 81.8181818,30.0661157 81.8181818,29.0617197 L78.8199659,29.3546685 C78.7788944,29.2709689 78.6556801,28.8524705 78.6556801,28.6432214 C79.107466,25.4626341 79.928895,20.5243538 79.928895,18.1389133 C79.928895,13.7446809 77.3003222,12.3636364 74.6717493,12.3636364 C71.468176,12.3636364 69.7021036,14.3305785 68.7985317,16.4230702 L68.4288886,16.4230702 C67.8949598,13.4935819 65.8413872,12.3636364 63.5413859,12.3636364 C60.2145983,12.3636364 58.4485259,14.456128 57.4628111,16.5904695 L56.8467393,16.5904695 L57.2163824,12.9913839 C56.4770962,12.7402849 55.6967387,12.6147354 54.9163811,12.6147354 C53.273523,12.6147354 51.6717364,13.0332337 50.5217358,13.7865307 C49.9878069,14.3305785 49.4949495,16.6741692 49.4949495,17.4274662 L52.3699511,17.1763672 L50.0288784,33.1211535 C50.727093,33.3304027 51.6717364,33.4141023 52.6574513,33.4141023 C53.9306663,33.4141023 55.2449527,33.2885528 56.1485246,33.1211535 L57.6270969,19.478108 C58.366383,18.1807631 59.7217409,16.6323193 61.0360274,16.6323193 C62.3503138,16.6323193 62.9663856,17.6785651 62.9663856,19.227009 C62.9663856,21.0684016 62.1449566,27.3877264 61.2003132,33.1211535 Z M88.6887973,25.2533849 C97.745956,24.6256374 100,21.1102515 100,17.7622648 C100,14.3724283 97.745956,12.3636364 93.6886767,12.3636364 C90.2871194,12.3636364 87.7052144,13.7865307 85.9019792,16.0464217 C83.8528483,18.6829611 82.8282828,22.6586953 82.8282828,26.0903816 C82.8282828,31.237911 85.2052747,34 90.2051542,34 C93.3608158,34 95.9427208,32.744505 97.5000603,31.5308599 C98.1147995,30.4427642 98.6885562,28.5176719 98.6885562,27.3458766 C96.8033558,28.3502726 93.7296594,29.1454194 91.4346327,29.1454194 C89.6313975,29.1454194 88.6887973,28.3084227 88.6887973,25.7974327 L88.6887973,25.2533849 Z M89.8989899,21.6363636 C90.0164435,20.7178764 90.3296531,19.3201785 90.8386187,18.4815598 C91.465038,17.3634015 92.4829692,16.4848485 93.5792029,16.4848485 C94.5579829,16.4848485 94.9494949,17.2435988 94.9494949,18.2818887 C94.9494949,19.6795866 94.3622269,21.3168898 89.8989899,21.6363636 Z" id="Game" fill="#FFFFFE" sketch:type="MSShapeGroup"></path>
            <path d="M33.6222106,9.27272727 L33.6222106,1.4319204 L36.3636364,1.4319204 L36.3636364,0 L29.2929293,0 L29.2929293,1.4319204 L32.0343551,1.4319204 L32.0343551,9.27272727 L33.6222106,9.27272727 Z M45.4545455,9.27272727 L45.4545455,0 L43.8272571,0 L43.8272571,3.78138204 L39.0010257,3.78138204 L39.0010257,0 L37.3737374,0 L37.3737374,9.27272727 L39.0010257,9.27272727 L39.0010257,5.21330244 L43.8272571,5.21330244 L43.8272571,9.27272727 L45.4545455,9.27272727 Z M52.5252525,9.27272727 L52.5252525,7.84080687 L48.0162677,7.84080687 L48.0162677,5.25500886 L52.4324205,5.25500886 L52.4324205,3.82308846 L48.0162677,3.82308846 L48.0162677,1.4319204 L52.5252525,1.4319204 L52.5252525,0 L46.4646465,0 L46.4646465,9.27272727 L52.5252525,9.27272727 Z" id="THE" fill="#EDF3F5" sketch:type="MSShapeGroup"></path>
        </g>
    </g>
</svg>